<svg version="1.2" xmlns="http://www.w3.org/2000/svg" viewBox="0 0 3000 2000" width="3000" height="2000">
	<title>host-svg</title>
	<defs>
		<clipPath clipPathUnits="userSpaceOnUse" id="cp1">
			<path d="m1547.75 1249.87c0 0-85.41-6.57-91.19 0-5.78 6.57 34 12.36 29.55 19.03-4.44 6.66-99.73 20.53-99.28 25.87 0.44 5.33 38.62 52.32 53.73 51.88 15.11-0.44 119.97-37.48 119.97-37.48z"/>
		</clipPath>
		<clipPath clipPathUnits="userSpaceOnUse" id="cp2">
			<path d="m1547.75 1249.87c0 0-85.41-6.57-91.19 0-5.78 6.57 34 12.36 29.55 19.03-4.44 6.66-99.73 20.53-99.28 25.87 0.44 5.33 38.62 52.32 53.73 51.88 15.11-0.44 119.97-37.48 119.97-37.48z"/>
		</clipPath>
		<clipPath clipPathUnits="userSpaceOnUse" id="cp3">
			<path d="m2183.45 676.95c34.66 7.01 53.91 56.4 43.01 110.31l-9.6 47.44c-3.81 18.84-5.91 37.99-6.27 57.21l-0.66 35.02h-77.05l11.08-54.75c-34.66-7.01-53.91-56.4-43.01-110.31 10.9-53.91 47.84-91.93 82.5-84.92z"/>
		</clipPath>
		<clipPath clipPathUnits="userSpaceOnUse" id="cp4">
			<path d="m2332.54 1473.04c0 0-37.83 33.37-36.49 35.71 1.34 2.35 26.71 30.51 36.49 31.18 9.78 0.67 42.34-10.57 42.34-10.57 0 0 12.5-37.79 10.69-38.4-1.81-0.61-53.03-17.92-53.03-17.92z"/>
		</clipPath>
		<clipPath clipPathUnits="userSpaceOnUse" id="cp5">
			<path d="m2646.27 1625.88c-35.16 35.16-92 35.16-127.15 0-35.16-35.15-35.16-91.99 0-127.15 35.15-35.15 91.99-35.15 127.15 0 35.15 35.16 35.15 92 0 127.15z"/>
		</clipPath>
		<clipPath clipPathUnits="userSpaceOnUse" id="cp6">
			<path d="m1085.95 931.59c-37.32 0-67.48-30.16-67.48-67.48 0-37.32 30.16-67.48 67.48-67.48 37.32 0 67.48 30.16 67.48 67.48 0 37.32-30.16 67.48-67.48 67.48z"/>
		</clipPath>
		<clipPath clipPathUnits="userSpaceOnUse" id="cp7">
			<path d="m1376.07 1251.56c0 0 67.92-11.52 75.89-3.38 7.97 8.14-32.12 10.85-32.2 17.52-0.08 6.66 94.83 20.18 89.61 34.98-5.22 14.81-43.47 44.49-60.89 43.01-17.42-1.48-102.23-38.35-102.23-38.35z"/>
		</clipPath>
		<clipPath clipPathUnits="userSpaceOnUse" id="cp8">
			<path d="m800.24 664.26c-34.51 0-62.49 43.52-62.49 97.21v47.24c0 18.76-1.7 37.49-5.07 55.94l-12.18 66.61 79.74-0.26v-72.32c34.51 0 67.79-52.61 67.79-106.3 0-53.69-33.28-88.12-67.79-88.12z"/>
		</clipPath>
		<clipPath clipPathUnits="userSpaceOnUse" id="cp9">
			<path d="m1110.03 1092.2l-212.31-167.49c-32.54-24.72-72.29-38.1-113.15-38.1h-70.73c-51.38 0-95.04 37.56-102.72 88.36l-42.49 281-11.68 77.25c0 0 51.82 68.09 151.22 66.85 99.4-1.24 210.42-60.4 210.42-60.4l-3.92-195.8 137.69 83.96 288.03 90.87 45.73-82.45z"/>
		</clipPath>
	</defs>
	<style>
		.s0 { fill: #f7f7f7 } 
		.s1 { fill: #373660 } 
		.s2 { fill: #fe6d60 } 
		.s3 { fill: #ffffff } 
		.s4 { fill: #e8e8e8 } 
		.s5 { fill: #ffc967 } 
		.s6 { fill: #ffd1c1 } 
		.s7 { fill: #ffb2a0 } 
		.s8 { fill: #4f5285 } 
		.s9 { fill: #ffa648 } 
		.s10 { fill: #e63e36 } 
	</style>
	<g id="Layer">
		<path id="Layer" class="s0" d="m2481.6 1710.3h-630.1c-43 0-77.8-34.8-77.8-77.8v-1059.2c0-42.9 34.8-77.8 77.8-77.8h630.1c43 0 77.8 34.9 77.8 77.8v1059.2c0 43-34.8 77.8-77.8 77.8z"/>
		<path id="Layer" fill-rule="evenodd" class="s1" d="m2502.9 1712.6h-630.1c-44.1 0-80.1-36-80.1-80.1v-1059.2c0-44.1 36-80 80.1-80h630.1c44.1 0 80.1 35.9 80.1 80.1v1059.1c-0.1 44.2-36 80.1-80.1 80.1zm-630.1-1214.9c-41.7 0-75.6 34-75.6 75.7v1059.1c0 41.7 33.9 75.6 75.6 75.6h630.1c41.7 0 75.6-33.9 75.6-75.6v-1059.1c0-41.7-33.9-75.7-75.6-75.7z"/>
		<g id="Layer">
			<path id="Layer" class="s2" d="m2169.4 608.8c-55.5 0-100.3-44.9-100.3-100.4 0-55.5 44.8-100.3 100.3-100.3 55.5 0 100.3 44.8 100.3 100.3 0 55.5-44.8 100.4-100.3 100.4z"/>
			<g id="Layer">
				<path id="Layer" class="s3" d="m2196.3 539.8h-74c-4.3 0-7.8-3.5-7.8-7.8v-47.1c0-4.3 3.5-7.8 7.8-7.8h74c4.3 0 7.8 3.5 7.8 7.8v47.1c-0.1 4.3-3.5 7.8-7.8 7.8z"/>
				<path id="Layer" class="s3" d="m2234.6 531.8l-22-7.8c-0.7-0.2-1.1-0.9-1.1-1.6v-29.6c0-0.7 0.5-1.4 1.2-1.6l22-6.4c1.1-0.3 2.2 0.5 2.2 1.6v43.8c0 1.1-1.2 2-2.3 1.6z"/>
			</g>
		</g>
		<g id="Layer">
			<path id="Layer" class="s4" d="m1914.8 568.4h-73.3c-1 0-1.8-0.8-1.8-1.8v-12.5c0-1 0.8-1.8 1.8-1.8h73.3c1 0 1.8 0.8 1.8 1.8v12.5c0 1-0.8 1.8-1.8 1.8z"/>
			<path id="Layer" class="s4" d="m1914.8 595.2h-73.3c-1 0-1.8-0.8-1.8-1.8v-12.6c0-1 0.8-1.8 1.8-1.8h73.3c1 0 1.8 0.8 1.8 1.8v12.6c0 1-0.8 1.8-1.8 1.8z"/>
			<path id="Layer" class="s4" d="m1914.8 621.9h-73.3c-1 0-1.8-0.8-1.8-1.8v-12.6c0-1 0.8-1.8 1.8-1.8h73.3c1 0 1.8 0.8 1.8 1.8v12.6c0 1-0.8 1.8-1.8 1.8z"/>
		</g>
	</g>
	<g id="Layer">
		<path id="Layer" class="s0" d="m1079.9 1710.3h-630.1c-43 0-77.8-34.8-77.8-77.8v-1059.2c0-42.9 34.8-77.8 77.8-77.8h630.1c43 0 77.8 34.9 77.8 77.8v1059.2c0 43-34.8 77.8-77.8 77.8z"/>
		<path id="Layer" fill-rule="evenodd" class="s1" d="m1101.2 1712.6h-630.1c-44.1 0-80.1-36-80.1-80.1v-1059.2c0-44.1 36-80 80.1-80h630.1c44.1 0 80 35.9 80 80.1v1059.1c0 44.2-35.9 80.1-80 80.1zm-630.1-1214.9c-41.7 0-75.6 34-75.6 75.7v1059.1c0 41.7 33.9 75.6 75.6 75.6h630.1c41.7 0 75.6-33.9 75.6-75.6v-1059.1c0-41.7-33.9-75.7-75.6-75.7z"/>
		<g id="Layer">
			<path id="Layer" class="s5" d="m767.7 608.8c-55.5 0-100.3-44.9-100.3-100.4 0-55.5 44.8-100.3 100.3-100.3 55.5 0 100.3 44.8 100.3 100.3 0 55.5-44.8 100.4-100.3 100.4z"/>
			<g id="Layer">
				<path id="Layer" class="s3" d="m794.6 539.8h-74c-4.3 0-7.8-3.5-7.8-7.8v-47.1c0-4.3 3.5-7.8 7.8-7.8h74c4.3 0 7.7 3.5 7.7 7.8v47.1c0 4.3-3.4 7.8-7.7 7.8z"/>
				<path id="Layer" class="s3" d="m832.9 531.8l-22-7.8c-0.7-0.2-1.1-0.9-1.1-1.6v-29.6c0-0.7 0.5-1.4 1.2-1.6l22-6.4c1.1-0.3 2.2 0.5 2.2 1.6v43.8c0 1.1-1.2 2-2.3 1.6z"/>
			</g>
		</g>
		<g id="Layer">
			<path id="Layer" class="s4" d="m513.1 568.4h-73.3c-1 0-1.8-0.8-1.8-1.8v-12.5c0-1 0.8-1.8 1.8-1.8h73.3c1 0 1.8 0.8 1.8 1.8v12.5c0 1-0.8 1.8-1.8 1.8z"/>
			<path id="Layer" class="s4" d="m513.1 595.2h-73.3c-1 0-1.8-0.8-1.8-1.8v-12.6c0-1 0.8-1.8 1.8-1.8h73.3c1 0 1.8 0.8 1.8 1.8v12.6c0 1-0.8 1.8-1.8 1.8z"/>
			<path id="Layer" class="s4" d="m513.1 621.9h-73.3c-1 0-1.8-0.8-1.8-1.8v-12.6c0-1 0.8-1.8 1.8-1.8h73.3c1 0 1.8 0.8 1.8 1.8v12.6c0 1-0.8 1.8-1.8 1.8z"/>
		</g>
	</g>
	<g id="Layer">
		<path id="Layer" class="s2" d="m2700.9 716.3h-291.9c-8.3 0-15.1 6.8-15.1 15.1v135.9c0 8.3 6.8 15.1 15.1 15.1h27.5v58.4c0 5.8 7 8.7 11.1 4.6l63-63.1h190.4c8.3 0 15-6.7 15-15v-135.9c0-8.3-6.8-15.1-15.1-15.1z"/>
		<g id="Layer">
			<path id="Layer" class="s3" d="m2553.8 769.5h-124.8c-2.5 0-4.6-2.1-4.6-4.6v-10.8c0-2.5 2.1-4.6 4.6-4.6h124.8c2.5 0 4.6 2.1 4.6 4.6v10.8c0 2.5-2.1 4.6-4.6 4.6z"/>
			<path id="Layer" class="s3" d="m2686.7 849.2h-257.7c-2.5 0-4.6-2.1-4.6-4.6v-10.8c0-2.5 2.1-4.6 4.6-4.6h257.7c2.5 0 4.6 2.1 4.6 4.6v10.8c0 2.5-2.1 4.6-4.6 4.6z"/>
			<path id="Layer" class="s3" d="m2622.6 769.5h-42.6c-2.5 0-4.6-2.1-4.6-4.6v-10.8c0-2.5 2.1-4.6 4.6-4.6h42.6c2.5 0 4.6 2.1 4.6 4.6v10.8c0 2.5-2.1 4.6-4.6 4.6z"/>
			<path id="Layer" class="s3" d="m2686.7 769.5h-40.5c-2.5 0-4.6-2.1-4.6-4.6v-10.8c0-2.5 2.1-4.6 4.6-4.6h40.5c2.5 0 4.6 2.1 4.6 4.6v10.8c0 2.5-2.1 4.6-4.6 4.6z"/>
			<path id="Layer" class="s3" d="m2686.7 809.3h-42.6c-2.5 0-4.6-2-4.6-4.6v-10.8c0-2.5 2.1-4.5 4.6-4.5h42.6c2.5 0 4.6 2 4.6 4.5v10.8c0 2.6-2.1 4.6-4.6 4.6z"/>
			<path id="Layer" class="s3" d="m2508.8 809.3h-79.8c-2.5 0-4.6-2-4.6-4.6v-10.8c0-2.5 2.1-4.5 4.6-4.5h79.8c2.5 0 4.6 2 4.6 4.5v10.8c0 2.6-2.1 4.6-4.6 4.6z"/>
			<path id="Layer" class="s3" d="m2622.6 809.3h-79.8c-2.5 0-4.5-2-4.5-4.6v-10.8c0-2.5 2-4.5 4.5-4.5h79.8c2.5 0 4.6 2 4.6 4.5v10.8c0 2.6-2.1 4.6-4.6 4.6z"/>
		</g>
	</g>
	<g id="Layer">
		<g id="Layer">
			<path id="Layer" class="s2" d="m1894.3 987.3h-189.4c-4.2 0-7.6-3.3-7.6-7.5v-220c0-4.2 3.4-7.5 7.6-7.5h189.4c4.2 0 7.5 3.3 7.5 7.5v220c0 4.2-3.3 7.5-7.5 7.5z"/>
		</g>
		<g id="Layer">
			<g id="Layer">
				<path id="Layer" fill-rule="evenodd" class="s3" d="m1760.4 823.1h-30.5c-3 0-5.5-2.4-5.5-5.4v-30.5c0-3 2.5-5.5 5.5-5.5h30.5c3 0 5.4 2.5 5.4 5.5v30.5c0 3-2.4 5.4-5.4 5.4zm-30.5-37.5c-0.9 0-1.6 0.7-1.6 1.6v30.5c0 0.9 0.7 1.6 1.6 1.6h30.5c0.9 0 1.6-0.7 1.6-1.6v-30.5c0-0.9-0.7-1.6-1.6-1.6z"/>
			</g>
			<g id="Layer">
				<g id="Layer">
					<path id="Layer" class="s3" d="m1787.6 784.4h93.7v3.9h-93.7z"/>
				</g>
				<g id="Layer">
					<path id="Layer" class="s3" d="m1787.6 800.5h93.7v3.9h-93.7z"/>
				</g>
				<g id="Layer">
					<path id="Layer" class="s3" d="m1787.6 816.6h52.5v3.8h-52.5z"/>
				</g>
			</g>
			<g id="Layer">
				<path id="Layer" class="s3" d="m1745.1 811.1l-9.5-11c-0.7-0.9-0.6-2.1 0.2-2.8 0.8-0.7 2.1-0.6 2.8 0.2l6.6 7.8 26.6-28.2c0.7-0.7 2-0.8 2.7 0 0.8 0.7 0.8 1.9 0.1 2.7z"/>
			</g>
		</g>
		<g id="Layer">
			<g id="Layer">
				<path id="Layer" fill-rule="evenodd" class="s3" d="m1760.4 890.1h-30.5c-3 0-5.5-2.4-5.5-5.4v-30.5c0-3 2.5-5.5 5.5-5.5h30.5c3 0 5.4 2.5 5.4 5.5v30.5c0 3-2.4 5.4-5.4 5.4zm-30.5-37.5c-0.9 0-1.6 0.7-1.6 1.6v30.5c0 0.8 0.7 1.5 1.6 1.5h30.5c0.9 0 1.6-0.7 1.6-1.5v-30.5c0-0.9-0.7-1.6-1.6-1.6z"/>
			</g>
			<g id="Layer">
				<g id="Layer">
					<path id="Layer" class="s3" d="m1787.6 851.4h93.7v3.9h-93.7z"/>
				</g>
				<g id="Layer">
					<path id="Layer" class="s3" d="m1787.6 867.5h93.7v3.8h-93.7z"/>
				</g>
				<g id="Layer">
					<path id="Layer" class="s3" d="m1787.6 883.5h52.5v3.9h-52.5z"/>
				</g>
			</g>
			<g id="Layer">
				<path id="Layer" class="s3" d="m1745.1 878.1l-9.5-11.1c-0.7-0.8-0.6-2 0.2-2.7 0.8-0.7 2.1-0.6 2.8 0.2l6.6 7.8 26.6-28.2c0.7-0.8 2-0.8 2.7-0.1 0.8 0.8 0.8 2 0.1 2.8z"/>
			</g>
		</g>
		<g id="Layer">
			<g id="Layer">
				<path id="Layer" fill-rule="evenodd" class="s3" d="m1760.4 957.1h-30.5c-3 0-5.5-2.4-5.5-5.4v-30.6c0-3 2.5-5.4 5.5-5.4h30.5c3 0 5.4 2.4 5.4 5.4v30.6c0 3-2.4 5.4-5.4 5.4zm-30.5-37.5c-0.9 0-1.6 0.7-1.6 1.5v30.5c0 0.9 0.7 1.6 1.6 1.6h30.5c0.9 0 1.6-0.7 1.6-1.6v-30.5c0-0.8-0.7-1.5-1.6-1.5z"/>
			</g>
			<g id="Layer">
				<g id="Layer">
					<path id="Layer" class="s3" d="m1787.6 918.4h93.7v3.9h-93.7z"/>
				</g>
				<g id="Layer">
					<path id="Layer" class="s3" d="m1787.6 934.5h93.7v3.8h-93.7z"/>
				</g>
				<g id="Layer">
					<path id="Layer" class="s3" d="m1787.6 950.5h52.5v3.9h-52.5z"/>
				</g>
			</g>
			<g id="Layer">
				<path id="Layer" class="s3" d="m1745.1 945l-9.5-11c-0.7-0.8-0.6-2 0.2-2.7 0.8-0.7 2.1-0.6 2.8 0.2l6.6 7.8 26.6-28.2c0.7-0.8 2-0.8 2.7-0.1 0.8 0.7 0.8 2 0.1 2.7z"/>
			</g>
		</g>
	</g>
	<g id="Layer">
		<g id="Layer">
			<path id="Layer" fill-rule="evenodd" class="s2" d="m2156.3 1487.1v38.8c0 3.2-2.6 5.7-5.7 5.7h-25.1c-3.4 19-10.9 36.9-21.8 52.8l17.7 17.7c2.2 2.3 2.2 5.9 0 8.1l-27.5 27.4c-2.2 2.3-5.8 2.3-8 0l-17.7-17.7c-15.9 11-33.9 18.4-52.9 21.9v25c0 3.2-2.5 5.8-5.7 5.8h-38.8c-3.1 0-5.7-2.6-5.7-5.8v-25c-19-3.5-36.9-10.9-52.8-21.9l-17.7 17.7c-2.2 2.3-5.8 2.3-8.1 0l-27.4-27.4c-2.2-2.2-2.2-5.8 0-8.1l17.7-17.7c-11-15.9-18.4-33.8-21.9-52.8h-25c-3.2 0-5.7-2.5-5.7-5.7v-38.8c0-3.2 2.5-5.7 5.7-5.7h25c3.5-19 10.9-36.9 21.9-52.8l-17.7-17.7c-2.2-2.3-2.2-5.9 0-8.1l27.4-27.4c2.3-2.3 5.9-2.3 8.1 0l17.7 17.7c15.9-11 33.8-18.4 52.8-21.9v-25c0-3.2 2.6-5.7 5.7-5.7h38.8c3.2 0 5.7 2.5 5.7 5.7v25c19 3.5 37 10.9 52.9 21.9l17.7-17.7c2.2-2.3 5.8-2.3 8 0l27.5 27.4c2.2 2.2 2.2 5.8 0 8.1l-17.7 17.7c10.9 15.9 18.4 33.8 21.8 52.8h25.1c3.1 0 5.7 2.6 5.7 5.7zm-74.2 19.4c0-50.7-41.2-91.9-91.9-91.9-50.7 0-91.9 41.2-91.9 91.9 0 50.7 41.2 91.9 91.9 91.9 50.7 0 91.9-41.2 91.9-91.9z"/>
		</g>
		<path id="Layer" class="s2" d="m2036 1510.3c-2.1 25.3-24.2 44-49.5 41.9-25.3-2.1-44-24.2-42-49.5 2.1-25.3 24.3-44 49.6-41.9 25.2 2.1 44 24.2 41.9 49.5z"/>
	</g>
	<g id="Layer">
		<path id="Layer" fill-rule="evenodd" class="s4" d="m2514.3 1377.8l-71.8 160.3c-1.2 2.6-4.4 3.8-7 2.6l-20.5-9.2-24.3-1.5c-10.3 3.2-24.3 7.1-30.2 6.7-3.1-0.2-7.8-3.2-12.7-7.3v178.5h-156.8c0 1.8-1.5 3.2-3.3 3.2-1.8 0-3.3-1.4-3.3-3.2h-109.1l-8.1-305.7-82.4-25.8c0 0 13-71.7 29.2-155.2-3.9 2.1-8.1 4.3-12.3 6.6-24.8 15.5-79.1 48.8-89.6 50-2.2 0.2-8.3 1-17 2-71.6 11.4-320.5 40.2-320.5 40.2l-0.8-3.4-59.1 14.2c-21.3 6.8-40.3 12.4-46.1 12.6-15.1 0.4-53.3-46.6-53.8-51.9-0.4-5.4 94.9-19.2 99.3-25.9 4.5-6.7-35.3-12.5-29.5-19 3.4-3.9 34.5-3.2 59.5-2-0.4-4.2-0.7-6.8-0.7-6.8l14.1 0.3 307.2-88.7 216.9-199.1c1.1-2.7 1.6-4.2 1.6-4.2 0.5-1.1 1.8-1.6 2.9-1.2q0.4 0.2 0.6 0.4c19.2-21.3 45-28.3 61.9-30.5 4-1.2 9-2.2 14.5-2.2l8.9-43.7c-30 0-43.7-42.4-44.6-60.1l-11-30.7c-3.7-10.4-4.8-21.6-3.2-32.5q0 0 0 0h-0.3q-7.9-0.4-16.8-1.6c0 0 0.5-2.9 1.7-7.5 0.7-2.9 1.5-6 2.3-7.6 8.6-25.7 34.5-74.3 105.8-65.3 72.8 9.2 63.4 85.2 63.4 85.2 0 3-0.1 6.5-0.3 10.6-0.7 22.3-25.3 78.4-25.4 78.7-3 16.7-4.7 33.6-5 50.5l-0.5 24.1h31.4c4.7 0 9.3 0.6 13.6 1.8 22 4 41.8 14.5 57.2 29.8 0.8-0.9 2.2-0.9 3.1 0 0.8 0.8 0.8 2.2 0 3.1h-0.1c17.5 18.3 179.2 189.6 179.2 234.5 0 13-25.3 89.1-50.7 162.4l21.8 9.8-3.2 7.1 21.3 9.6c2.6 1.2 3.8 4.3 2.6 7zm-45-26l21.1 9.4zm-341.8-543q-0.1 0-0.1 0 0 0 0.1 0z"/>
		<g id="Layer">
			<g id="Layer">
				<path id="XMLID_363_" class="s6" d="m1547.8 1249.9c0 0-85.5-6.6-91.2 0-5.8 6.5 34 12.3 29.5 19-4.4 6.7-99.7 20.5-99.3 25.9 0.5 5.3 38.6 52.3 53.8 51.8 15.1-0.4 119.9-37.4 119.9-37.4z"/>
				<g id="Clip-Path" clip-path="url(#cp1)">
					<path id="Layer" class="s7" d="m1515.4 1241.1c0 0 5.8 47.1-3.5 64.4-9.4 17.3-38.2 39.6-38.2 39.6l104.4-36.5-6.7-66.2z"/>
				</g>
				<g id="Clip-Path" clip-path="url(#cp2)">
					<path id="Layer" class="s7" d="m1436.5 1277.4c29.2-33.5 74.7 10.7 88.4 28.2 7.4 9.5-13.7 22-34 31.2-18.8 8.5-47.2 20.6-64.8 9.9l-36.4-39.9c0 0 21.8-0.8 46.8-29.4z"/>
				</g>
			</g>
			<path id="Layer" class="s5" d="m2137.8 917.1c0 0-72.8-4.2-96.6 61.2-23.7 65.4-84.4 401.4-84.4 401.4l111.1 34.7z"/>
			<path id="Layer" class="s1" d="m2037.7 1345.8l9.6 365.3h272.5v-193.9c0-17.7 6.2-34.8 17.8-48.1 16.2-18.5 37-55.9 32.1-123.3z"/>
			<g id="Layer">
				<g id="Layer">
					<g id="Layer">
						<g id="Layer">
							<path id="XMLID_390_" class="s6" d="m2183.4 677c34.7 7 54 56.4 43.1 110.3l-9.6 47.4c-3.8 18.8-5.9 38-6.3 57.2l-0.7 35h-77l11.1-54.7c-34.7-7-53.9-56.4-43.1-110.3 10.9-53.9 47.9-92 82.5-84.9z"/>
							<g id="Clip-Path" clip-path="url(#cp3)">
								<path id="Layer" class="s7" d="m2178 733.5c0 0.9 5.7 23.2-18.2 32-24 8.8-66.1 9.6-66.1 9.6 0 0 0.8-41.3 10.7-46 9.9-4.6 73.6 4.4 73.6 4.4z"/>
							</g>
						</g>
						<path id="Layer" class="s7" d="m2143.9 872.2c0 0 25.8 1.3 48.2-28.8 0 0-14.5 45.4-50.7 41.2z"/>
					</g>
					<path id="Layer" class="s1" d="m2171.4 735.8l2.6 16.1c1.5 9.7 7.5 18 16 22.7l12.2 6.6c0 0-1.7-15.4 10.5-15.7 12.2-0.4 9.8 33.8-3.5 34.5l6.4 41.4c0 0 24.7-56.4 25.4-78.7 0.9-23.9 0-26.9 0-26.9z"/>
					<path id="Layer" class="s1" d="m2088.2 735.8l-1.6 6.4c-3.3 13-2.7 26.6 1.8 39.2l11 30.7c0 0-5.3-37.4 10.6-76.3 0 0-21.8 0-21.8 0z"/>
				</g>
				<path id="Layer" class="s1" d="m2241.3 752.1c0 0-64.4-1.6-99.9-3.4l9.9-11.2c0 0-26.2 17.5-83.2 9.8 0 0 13.6-92.6 109.8-80.4 72.8 9.2 63.4 85.2 63.4 85.2z"/>
				<path id="Layer" class="s8" d="m2072.1 732.2c0 0 18.8 14.4 79.2 5.3 0 0-20.5 15-66.1 11.4l-17-1.6c0 0 2.2-11.4 3.9-15.1z"/>
			</g>
			<g id="Layer">
				<path id="Layer" class="s3" d="m2209.2 800l-26 48.6 0.3-25.3c0-3-1.2-5.8-3.2-7.9l22-34.2 0.2-5.7-24.7 38h0.1q-0.7-0.4-1.4-0.6c-12.5-5-37.9-14.6-45.8-13.3-10.6 1.8-31.3 12.5-31.3 12.5 0.9 17.7 14.6 60.1 44.6 60.1 29.9 0 39.1-18.4 39.1-18.4l26.6-50.6z"/>
				<g id="Layer">
					<g id="Layer">
						<path id="Layer" class="s4" d="m2178.9 819.2c0 2.1-1.7 3.7-3.8 3.7-2 0-3.7-1.6-3.7-3.7 0-2.1 1.7-3.7 3.8-3.7 2 0 3.7 1.6 3.7 3.7z"/>
						<path id="Layer" class="s4" d="m2180.6 851.4c0 2.1-1.7 3.8-3.8 3.8-2 0-3.7-1.7-3.7-3.8 0-2.1 1.7-3.7 3.7-3.7 2.1 0 3.8 1.7 3.8 3.7z"/>
					</g>
					<path id="Layer" class="s4" d="m2111.6 812.4c0-0.2 0-0.4 0.2-0.5 2.1-1 14.4-6.7 18.3-7.3 3.7-0.7 15.9 2.7 18.9 3.5 0.4 0.1 0.6 0.5 0.6 0.9l-0.5 5.5c0 0.5-0.5 0.9-1 0.8-3.5-0.9-16.1-3.7-17.5-3.2-1.6 0.5-14.2 4.8-16.3 5.5-0.2 0.1-0.4 0-0.4-0.2z"/>
				</g>
			</g>
			<path id="Layer" class="s3" d="m2137.8 916h103.7c28.1 0 51.3 21.8 53.2 49.8l25.1 380h-295l53.2-377.8c4.2-29.9 29.7-52 59.8-52z"/>
			<path id="Layer" class="s5" d="m2057.3 950.3l-220.6 202.4-307.8 88.9 17.7 81.7c0 0 329.7-38.1 339.4-44 24.5-14.9 134.9-73.5 134.9-73.5z"/>
			<path id="Layer" class="s8" d="m2159.7 1714.4c-1.8 0-3.3-1.5-3.3-3.3v-238.7c0-1.8 1.5-3.3 3.3-3.3 1.8 0 3.3 1.5 3.3 3.3v238.8c0 1.8-1.5 3.2-3.3 3.2z"/>
			<path id="Layer" class="s9" d="m1986 1223.3l30.1-147.3-129.7 182.6-175.7 44c0 0 159.7-20 173.4-21.5 13.7-1.6 101.9-57.8 101.9-57.8z"/>
			<path id="Layer" class="s4" d="m2156.3 915.9c0 0-9.6 28.4-22.4 28.4-12.8 0-23.9-21.5-23.9-21.5 0 0 10.5-6.9 25.1-6.9 0 0 21.2 0 21.2 0z"/>
			<path id="Layer" class="s4" d="m2169.4 916c0 0 6.3 28.1 17.7 28.3 11.3 0.1 38.6-28.3 38.6-28.3z"/>
			<path id="Layer" class="s5" d="m2218.5 916l13.1 497.3 177.6-67.5-66.6-341.5c-9.9-51.3-54.9-88.3-107.1-88.3 0 0-17 0-17 0z"/>
			<path id="Layer" class="s1" d="m2178.5 926.8c-0.1-3.5-3.9-10.9-3.9-10.9h-21.4c0 0-6.5 5.8-6.4 11.7 0 1.5 2.7 4.5 5.8 7.4l-47.7 252.3 32.9 48.8 34.9-47.2-3.1-252.8c4.5-3.5 9-7.5 8.9-9.3z"/>
			<g id="Layer">
				<path id="Layer" class="s2" d="m2407.5 1544l-272-121.9c-2.6-1.2-3.8-4.3-2.6-7l71.8-160.3c1.2-2.7 4.4-3.8 7-2.7l272 121.9c2.6 1.2 3.8 4.4 2.6 7l-71.8 160.3c-1.2 2.7-4.3 3.9-7 2.7z"/>
				<g id="Layer">
					<path id="Layer" class="s1" d="m2233.6 1244.7l66 29.6-6.4 14.3-66-29.6z"/>
					<path id="Layer" class="s10" d="m2296.4 1281.4l169.2 75.9-3.2 7.1-169.2-75.8z"/>
				</g>
				<g id="Layer">
					<path id="Layer" class="s10" d="m2216.1 1276.2l60 26.9-61.7 137.8-60.1-27z"/>
					<g id="Layer">
						<path id="Layer" class="s2" d="m2222.8 1296.3l9.6 4.2-50.4 112.4-9.6-4.3z"/>
						<path id="Layer" class="s2" d="m2236.2 1331.6l9.5 4.3-39.4 87.9-9.5-4.3z"/>
					</g>
				</g>
			</g>
			<g id="Layer">
				<path id="XMLID_365_" class="s5" d="m2313.8 949.1c0 0 180.7 188.6 180.7 236.1 0 26.1-102.2 308-102.2 308l-72.5-24.5c0 0 57.3-252.2 50.7-258.5-6.7-6.3-88.8-55.2-88.8-60 0-4.7 32.1-201.1 32.1-201.1z"/>
			</g>
			<path id="Layer" class="s9" d="m2354.7 1307.7c0 0 22.4-85.4 15.7-97.5-6.7-12.1-85.8-73.4-85.8-73.4 0 0 11.7 58.5 25 72.7 13.4 14.2 46.5 36 45.1 98.2z"/>
			<g id="Layer">
				<path id="XMLID_364_" class="s6" d="m2332.5 1473c0 0-37.8 33.4-36.4 35.8 1.3 2.3 26.7 30.5 36.4 31.1 9.8 0.7 42.4-10.5 42.4-10.5 0 0 12.5-37.8 10.7-38.4-1.8-0.7-53.1-18-53.1-18z"/>
				<g id="Clip-Path" clip-path="url(#cp4)">
					<path id="Layer" class="s7" d="m2323.9 1473c0 0 38.4 24.1 39.1 45 0.8 20.8-2.8 25.5-2.8 25.5l26.8-8.7c0 0 11.1-57.8 5.3-58.1-5.9-0.4-59.8-18.7-59.8-18.7z"/>
				</g>
			</g>
			<path id="Layer" class="s9" d="m2284.6 1139c-0.9 0-1.8-0.6-2.1-1.6-0.1-0.3-9.2-31.3-10.2-69.9-0.8-35.7 5.4-85.6 40-120 0.8-0.8 2.2-0.8 3.1 0 0.8 0.9 0.8 2.3 0 3.2-33.5 33.2-39.5 81.8-38.7 116.7 0.9 38 9.9 68.4 10 68.7 0.4 1.2-0.3 2.4-1.5 2.8q-0.3 0.1-0.6 0.1z"/>
			<path id="Layer" class="s9" d="m2009.2 1106.2q-0.2 0-0.4 0c-1.2-0.3-2-1.4-1.7-2.6 11.2-60.5 47.8-153.2 48.1-154.2 0.5-1.1 1.8-1.6 2.9-1.2 1.1 0.5 1.7 1.7 1.2 2.9-0.3 0.9-36.8 93.2-47.9 153.3-0.2 1-1.1 1.8-2.2 1.8z"/>
		</g>
	</g>
	<g id="Layer">
		<path id="Layer" class="s1" d="m1476.1 1169.2c-69.4 0-125.4-56.1-125.4-125.4 0-69.4 56-125.4 125.4-125.4 69.3 0 125.4 56 125.4 125.4 0 69.3-56.1 125.4-125.4 125.4z"/>
		<path id="Layer" class="s3" d="m1541.7 1010.2l-13.7-13.7-67.3 67.3-31-31.1-13.7 13.7 44.7 44.7 0.3-0.4 0.1 0.1z"/>
	</g>
	<g id="Layer">
		<path id="Layer" class="s5" d="m1499.5 759.6h-468.3c-5.6 0-10.1-4.5-10.1-10.1v-73.6c0-5.6 4.5-10.1 10.1-10.1h468.3c5.5 0 10.1 4.5 10.1 10.1v73.6c0 5.6-4.6 10.1-10.1 10.1z"/>
		<g id="Layer">
			<path id="Layer" class="s3" d="m1086 687l8.3 16.9 18.7 2.7-13.5 13.2 3.2 18.7-16.7-8.8-16.8 8.8 3.2-18.7-13.5-13.2 18.7-2.7z"/>
			<path id="Layer" class="s3" d="m1177.1 687l8.4 16.9 18.7 2.7-13.5 13.2 3.2 18.7-16.8-8.8-16.7 8.8 3.2-18.7-13.6-13.2 18.8-2.7z"/>
			<path id="Layer" class="s3" d="m1268.3 687l8.4 16.9 18.7 2.7-13.6 13.2 3.2 18.7-16.7-8.8-16.8 8.8 3.2-18.7-13.5-13.2 18.7-2.7z"/>
			<path id="Layer" class="s3" d="m1359.5 687l8.3 16.9 18.8 2.7-13.6 13.2 3.2 18.7-16.7-8.8-16.8 8.8 3.2-18.7-13.5-13.2 18.7-2.7z"/>
			<path id="Layer" class="s3" d="m1450.6 687l8.4 16.9 18.7 2.7-13.5 13.2 3.2 18.7-16.8-8.8-16.7 8.8 3.2-18.7-13.6-13.2 18.8-2.7z"/>
		</g>
	</g>
	<g id="Layer">
		<g id="Layer">
			<path id="XMLID_387_" class="s3" d="m2646.3 1625.9c-35.2 35.1-92 35.1-127.2 0-35.1-35.2-35.1-92 0-127.2 35.2-35.1 92-35.1 127.2 0 35.1 35.2 35.1 92 0 127.2z"/>
			<g id="Clip-Path" clip-path="url(#cp5)">
				<path id="Layer" class="s2" d="m2596.4 1593c13.1-5.4 22.3-18.3 22.3-33.3 0-19.9-16.1-36-36-36-19.9 0-36 16.1-36 36 0 15 9.2 27.9 22.3 33.3-28.9 6.1-50.9 31.1-52.4 61.5h132.3c-1.5-30.4-23.5-55.4-52.5-61.5z"/>
			</g>
		</g>
	</g>
	<g id="Layer">
		<g id="Layer">
			<path id="XMLID_388_" class="s3" d="m1086 931.6c-37.4 0-67.5-30.2-67.5-67.5 0-37.3 30.1-67.5 67.5-67.5 37.3 0 67.4 30.2 67.4 67.5 0 37.3-30.1 67.5-67.4 67.5z"/>
			<g id="Clip-Path" clip-path="url(#cp6)">
				<path id="Layer" class="s5" d="m1096.2 887.2c9.9-4.1 16.8-13.8 16.8-25 0-15-12.1-27.1-27.1-27.1-14.9 0-27 12.1-27 27.1 0 11.2 6.9 20.9 16.8 25-21.8 4.5-38.3 23.3-39.4 46.1h99.3c-1.1-22.8-17.6-41.6-39.4-46.1z"/>
			</g>
		</g>
	</g>
	<g id="Layer">
		<path id="Layer" class="s4" d="m1384.5 1262.6c0.1-6.6 40.2-9.3 32.2-17.5-5.8-5.9-43.3-1.4-63.3 1.5 0.6-2.7 1-4.4 1-4.4l-7.5-1.9 4-7.1-276.1-144.1-212.3-167.5c-26.8-20.3-58.4-32.9-91.5-36.8q0 0 0 0c0 0-3.6-9.4-6-11.2v-18c3.7 0.1 7.1-0.4 10.4-1.2 0 0 52-6.7 53.3-72 1.4-5.8 2.5-11.7 3.2-17.7 2 0.6 4.1 1 6.1 1.1 0 0 1.4-18.9 0.4-36.6 8.6 2.9 20.4 4.1 34.2-1.5 30.2-12.4 30.2-48.7 30.2-48.7h-29.1c4.8-0.6 13-4.1 13-20.6l-39.7-2.1c0 0-85.1-42.2-140.3-2.8-51.5 36.7-5.1 171.3-4.8 172q-1.2 18.2-4.5 36.1l-1.8 10.1c-3.4 0-5.9 0-7 0-7.1 0.2-10 11.8-10 11.8-51.4 0-95 37.6-102.7 88.4l-42.5 281-11.7 77.3c0 0 3.6 4.6 10.6 11.5-9.5 68.5 29.7 145.7 29.7 145.7v220.7h265.5c0 0 40.4-187 41.9-234.7 1.1-34.9-3.1-96.6-5.4-127.3 12.2-5.7 19.4-9.5 19.4-9.5l-4-195.8 137.7 84 288.1 90.8 4.5-8.2c0 0 96 32.6 103.6 33.2 17.4 1.5 55.6-28.2 60.9-43 5.1-14.8-89.8-28.3-89.7-35z"/>
		<g id="Layer">
			<path id="Layer" class="s1" d="m897.7 1330.7c0 0 8.4 98 6.9 145.8-1.5 47.7-41.9 234.6-41.9 234.6h-265.4v-220.6c0 0-47.9-94.4-25.1-167z"/>
			<path id="Layer" class="s8" d="m720.5 1714.4c-1.8 0-3.3-1.5-3.3-3.3v-208.2c0-5.1-2.1-10-5.8-13.5-11.7-10.9-32.6-35.3-40.7-76-0.3-1.8 0.8-3.5 2.6-3.8 1.8-0.4 3.5 0.8 3.8 2.5 7.8 38.9 27.6 62.1 38.8 72.5 5 4.7 7.9 11.4 7.9 18.3v208.3c0 1.8-1.5 3.2-3.3 3.2z"/>
			<g id="Layer">
				<g id="Layer">
					<path id="XMLID_386_" class="s6" d="m1376.1 1251.6c0 0 67.9-11.6 75.9-3.4 7.9 8.1-32.2 10.8-32.2 17.5-0.1 6.7 94.8 20.2 89.6 35-5.3 14.8-43.5 44.5-60.9 43-17.4-1.5-102.3-38.4-102.3-38.4z"/>
					<g id="Clip-Path" clip-path="url(#cp7)">
						<path id="Layer" class="s7" d="m1389.7 1245.3c0 0-7.5 29.8-5 45.1 2.5 15.3 19.7 45 19.7 45l-64.5-26.9 32.5-67.5z"/>
					</g>
				</g>
				<g id="Layer">
					<g id="Layer">
						<g id="Layer">
							<g id="Layer">
								<g id="Layer">
									<path id="XMLID_385_" class="s6" d="m800.2 664.3c-34.5 0-62.5 43.5-62.5 97.2v47.2c0 18.8-1.7 37.5-5 56l-12.2 66.6 79.7-0.3v-72.3c34.5 0 67.8-52.6 67.8-106.3 0-53.7-33.3-88.1-67.8-88.1z"/>
									<g id="Clip-Path" clip-path="url(#cp8)">
										<path id="Layer" class="s7" d="m827.9 728.5c0 0 19.7 38.9 45.4 40.4 0 0 3.7-50.2-5.3-63.3z"/>
									</g>
								</g>
							</g>
						</g>
						<path id="Layer" class="s1" d="m737.1 828.6h14.3c12.5 0 24.4-5 33.2-14l26.8-27.3c0 0-25.9-14.4-14.4-32.5 11.6-18 28.4 11.7 28.4 11.7l32.2-43.5c0 0 20.1 20.1 50.3 7.7 30.2-12.3 30.2-48.7 30.2-48.7h-32.7c0 0 16.6 2.9 16.6-20.5l-39.8-2.1c0 0-85-42.2-140.3-2.8-51.6 36.8-4.8 172-4.8 172z"/>
						<path id="Layer" class="s7" d="m800.2 858.7l-12.6-21c0 0 22.5 11.8 31.9 10.5 9.4-1.3 22-14.5 22-14.5 0 0-16.7 25.7-41.3 25z"/>
						<path id="Layer" class="s3" d="m713.8 886.6c0 0 3-11.6 10-11.8 7.1-0.2 74 0.1 76.4 1.9 2.5 1.8 6.1 11.2 6.1 11.2 0 0-85.8 0.8-92.5-1.3z"/>
						<g id="Layer">
							<g id="Layer">
								<path id="XMLID_384_" class="s2" d="m1110 1092.2l-212.3-167.5c-32.5-24.7-72.3-38.1-113.1-38.1h-70.8c-51.3 0-95 37.6-102.7 88.4l-42.5 281-11.6 77.2c0 0 51.8 68.1 151.2 66.9 99.4-1.3 210.4-60.4 210.4-60.4l-3.9-195.8 137.7 83.9 288 90.9 45.7-82.5z"/>
								<g id="Clip-Path" clip-path="url(#cp9)">
									<path id="Layer" class="s10" d="m859 1366.2l19.2-312.5c0 0 166.8 147.9 193.2 163.5 26.4 15.6 274.8 88.2 274.8 88.2v25.3c0 0-279.6-83.8-295.2-85.4-15.6-1.7-113-72-113-72v170.4c0.1 0-66.6 17.9-79 22.5z"/>
								</g>
							</g>
							<path id="Layer" class="s10" d="m876 1054c0-0.2-3.1-22.6-2.3-49.7 1.2-36.6 8.7-63.8 22.3-80.9l3.4 2.6c-31.2 39.2-19.2 126.5-19.1 127.4z"/>
						</g>
					</g>
					<g id="Layer">
						<path id="Layer" class="s3" d="m843.6 788.6q-0.5 0.1-1 0.3l-12.7-24.4c-1.3-2.5-3.7-4.1-6.4-4.5l-2.7-0.4 17.3 32.7q-0.4 0.6-0.7 1.3l-9.1 23.1-16.9-29.4-6.4-4.5c0.6 3 1.7 5.9 3.3 8.5l18.3 29.8-15.9 36.3c0 0 52-6.6 53.3-72z"/>
						<path id="Layer" class="s4" d="m847.3 795c0 1.6-1.3 2.9-2.9 2.9-1.6 0-3-1.3-3-2.9 0-1.6 1.4-2.9 3-2.9 1.6 0 2.9 1.3 2.9 2.9z"/>
						<path id="Layer" class="s4" d="m835.5 822.4c0 1.6-1.3 2.9-2.9 2.9-1.6 0-2.9-1.3-2.9-2.9 0-1.6 1.3-2.9 2.9-2.9 1.6 0 2.9 1.3 2.9 2.9z"/>
					</g>
				</g>
			</g>
		</g>
	</g>
	<g id="Layer">
		<path id="Layer" class="s5" d="m652.5 1241.2h-530.3c-8.2 0-14.9-6.7-14.9-14.9v-246.8c0-8.2 6.7-14.9 14.9-14.9h530.3c8.2 0 14.9 6.7 14.9 14.9v246.8c0 8.2-6.7 14.9-14.9 14.9z"/>
		<g id="Layer">
			<path id="Layer" class="s9" d="m129.7 989.4h250v140.4h-250z"/>
			<path id="Layer" class="s3" d="m129.7 1129.8l73.9-93.9c4.8-6 13.8-6.2 18.8-0.4l62 71.1 38.3-40.7c4.2-4.4 11.1-4.4 15.2 0l41.8 44.1v19.8z"/>
			<path id="Layer" class="s3" d="m279.8 1045.9c-8 0-14.6-6.5-14.6-14.6 0-8.1 6.6-14.6 14.6-14.6 8.1 0 14.6 6.5 14.6 14.6 0 8.1-6.5 14.6-14.6 14.6z"/>
		</g>
		<g id="Layer">
			<g id="Layer">
				<path id="Layer" class="s3" d="m417.8 1000.2h227.3v21.7h-227.3z"/>
				<path id="Layer" class="s3" d="m417.8 1045.9h227.3v21.6h-227.3z"/>
				<path id="Layer" class="s3" d="m417.8 1091.6h164.9v21.6h-164.9z"/>
			</g>
			<path id="Layer" class="s3" d="m129.7 1153.4h515.4v21.7h-515.4z"/>
			<path id="Layer" class="s3" d="m129.7 1196.2h380.8v21.7h-380.8z"/>
		</g>
	</g>
	<g id="Layer">
		<g id="Layer">
			<path id="Layer" class="s4" d="m1337.9 1594.3h38.5v70.4h-38.5z"/>
			<path id="Layer" class="s4" d="m1409.9 1535.1h38.5v129.6h-38.5z"/>
			<path id="Layer" class="s2" d="m1481.9 1483h38.5v181.7h-38.5z"/>
			<path id="Layer" class="s5" d="m1553.9 1438.4h38.5v226.3h-38.5z"/>
		</g>
		<path id="Layer" class="s1" d="m1620.8 1668.2h-310.7v-3.4h307.3v-226.5h3.4z"/>
	</g>
	<g id="Layer">
		<g id="Layer">
			<path id="Layer" class="s5" d="m971.5 1420.8h139.3v51.7c0 41.7-33.9 75.6-75.6 75.6h-63.7z"/>
			<path id="Layer" class="s9" d="m1109.8 1484.4c0 0-25.2 18.6-73 19.3 0 0 14.3 36.2-9.5 44.4 0 0 38.2 2.2 57.4-16.5 23.1-22.5 25.1-47.2 25.1-47.2z"/>
		</g>
		<path id="Layer" class="s1" d="m1017.8 1439.2l41.2-41.3 9.5 9.5-41.2 41.3z"/>
	</g>
	<g id="Layer">
		<g id="Layer">
			<path id="Layer" class="s5" d="m449.3 1444.2h-87.5v-8.1c0-3.3-2.6-5.9-5.9-5.9h-48.8c-3.2 0-5.9 2.6-5.9 5.9v16.9 0.4 76.5c0 4.8 4 8.8 8.8 8.8h139.3c4.8 0 8.8-4 8.8-8.8v-76.9c0-4.8-4-8.8-8.8-8.8z"/>
			<path id="Layer" class="s2" d="m432.2 1444.2h-70.3v-9.8h66.4c2.1 0 3.9 1.7 3.9 3.9z"/>
		</g>
		<g id="Layer">
			<path id="Layer" class="s9" d="m440.3 1479.4h-121.3c-0.4 0-0.7-0.3-0.7-0.7v-10.5c0-0.4 0.3-0.7 0.7-0.7h121.3c0.4 0 0.7 0.3 0.7 0.7v10.5c0 0.4-0.3 0.7-0.7 0.7z"/>
			<path id="Layer" class="s9" d="m440.3 1500.5h-121.3c-0.4 0-0.7-0.3-0.7-0.8v-10.4c0-0.4 0.3-0.7 0.7-0.7h121.3c0.4 0 0.7 0.3 0.7 0.7v10.5c0 0.4-0.3 0.7-0.7 0.7z"/>
			<path id="Layer" class="s9" d="m377.3 1521.6h-58.5c-0.3 0-0.5-0.2-0.5-0.5v-10.9c0-0.3 0.2-0.6 0.5-0.6h58.5c0.3 0 0.5 0.3 0.5 0.6v10.9c0 0.3-0.2 0.5-0.5 0.5z"/>
		</g>
	</g>
</svg>